{
  "accessors": [
    {
      "bufferView": 1,
      "componentType": 5126,
      "count": 626,
      "max": [
        6.3819999694824219,
        -8.0539999008178711,
        5.25
      ],
      "min": [
        -14.017999649047852,
        -12.053999900817871,
        -15.583999633789062
      ],
      "type": "VEC3"
    },
    {
      "bufferView": 1,
      "byteOffset": 7512,
      "componentType": 5126,
      "count": 626,
      "max": [
        0.9998665452003479,
        1,
        0.9998665452003479
      ],
      "min": [
        -0.9998665452003479,
        -1,
        -0.99987351894378662
      ],
      "type": "VEC3"
    },
    {
      "bufferView": 0,
      "componentType": 5125,
      "count": 1869,
      "max": [
        625
      ],
      "min": [
        0
      ],
      "type": "SCALAR"
    },
    {
      "bufferView": 1,
      "byteOffset": 15024,
      "componentType": 5126,
      "count": 120,
      "max": [
        -2.5150001049041748,
        -9.0539999008178711,
        -15.437000274658203
      ],
      "min": [
        -4.5250000953674316,
        -11.053999900817871,
        -15.784999847412109
      ],
      "type": "VEC3"
    },
    {
      "bufferView": 1,
      "byteOffset": 16464,
      "componentType": 5126,
      "count": 120,
      "max": [
        0.99726021289825439,
        0.9986107349395752,
        0.99891048669815063
      ],
      "min": [
        -0.99884998798370361,
        -0.99935460090637207,
        -0.99881994724273682
      ],
      "type": "VEC3"
    },
    {
      "bufferView": 0,
      "byteOffset": 7476,
      "componentType": 5125,
      "count": 333,
      "max": [
        119
      ],
      "min": [
        0
      ],
      "type": "SCALAR"
    },
    {
      "bufferView": 1,
      "byteOffset": 17904,
      "componentType": 5126,
      "count": 672,
      "max": [
        6.1270999908447266,
        -11,
        4.9450998306274414
      ],
      "min": [
        -13.763099670410156,
        -20,
        -14.945099830627441
      ],
      "type": "VEC3"
    },
    {
      "bufferView": 1,
      "byteOffset": 25968,
      "componentType": 5126,
      "count": 672,
      "max": [
        0.98769849538803101,
        -0.12964263558387756,
        0.98956513404846191
      ],
      "min": [
        -0.98774456977844238,
        -0.99999696016311646,
        -0.98956501483917236
      ],
      "type": "VEC3"
    },
    {
      "bufferView": 0,
      "byteOffset": 8808,
      "componentType": 5125,
      "count": 3744,
      "max": [
        671
      ],
      "min": [
        0
      ],
      "type": "SCALAR"
    },
    {
      "bufferView": 1,
      "byteOffset": 34032,
      "componentType": 5126,
      "count": 673,
      "max": [
        6.1270999908447266,
        -0,
        4.9450998306274414
      ],
      "min": [
        -13.763099670410156,
        -9,
        -14.945099830627441
      ],
      "type": "VEC3"
    },
    {
      "bufferView": 1,
      "byteOffset": 42108,
      "componentType": 5126,
      "count": 673,
      "max": [
        0.98769855499267578,
        1,
        0.98956513404846191
      ],
      "min": [
        -0.98776727914810181,
        0.12966428697109222,
        -0.99140161275863647
      ],
      "type": "VEC3"
    },
    {
      "bufferView": 0,
      "byteOffset": 23784,
      "componentType": 5125,
      "count": 3744,
      "max": [
        672
      ],
      "min": [
        0
      ],
      "type": "SCALAR"
    }
  ],
  "asset": {
    "extras": {
      "author": "Shylaaa (https://sketchfab.com/Shylaaa)",
      "license": "CC-BY-4.0 (http://creativecommons.org/licenses/by/4.0/)",
      "source": "https://sketchfab.com/3d-models/pink-lemonade-pokeball-2-7d659da4c6f04116bfd414476429252a",
      "title": "Pink Lemonade Pokeball 2"
    },
    "generator": "Sketchfab-9.52.0",
    "version": "2.0"
  },
  "bufferViews": [
    {
      "buffer": 0,
      "byteLength": 38760,
      "byteOffset": 0,
      "name": "floatBufferViews",
      "target": 34963
    },
    {
      "buffer": 0,
      "byteLength": 50184,
      "byteOffset": 38760,
      "byteStride": 12,
      "name": "floatBufferViews",
      "target": 34962
    }
  ],
  "buffers": [
    {
      "byteLength": 88944,
      "uri": "scene.bin"
    }
  ],
  "materials": [
    {
      "doubleSided": true,
      "emissiveFactor": [
        0,
        0,
        0
      ],
      "name": "color_14093196",
      "pbrMetallicRoughness": {
        "baseColorFactor": [
          0.84313700000000003,
          0.043137300000000003,
          0.54901999999999995,
          1
        ],
        "metallicFactor": 0,
        "roughnessFactor": 1
      }
    },
    {
      "doubleSided": true,
      "emissiveFactor": [
        0,
        0,
        0
      ],
      "name": "color_16246401",
      "pbrMetallicRoughness": {
        "baseColorFactor": [
          0.96862700000000002,
          0.90196100000000001,
          0.50588200000000005,
          1
        ],
        "metallicFactor": 0,
        "roughnessFactor": 1
      }
    },
    {
      "doubleSided": true,
      "emissiveFactor": [
        0,
        0,
        0
      ],
      "name": "color_16246659",
      "pbrMetallicRoughness": {
        "baseColorFactor": [
          0.96862700000000002,
          0.90588199999999997,
          0.51372600000000002,
          1
        ],
        "metallicFactor": 0,
        "roughnessFactor": 1
      }
    },
    {
      "doubleSided": true,
      "emissiveFactor": [
        0,
        0,
        0
      ],
      "name": "color_16448250",
      "pbrMetallicRoughness": {
        "baseColorFactor": [
          0.98039200000000004,
          0.98039200000000004,
          0.98039200000000004,
          1
        ],
        "metallicFactor": 0,
        "roughnessFactor": 1
      }
    }
  ],
  "meshes": [
    {
      "primitives": [
        {
          "attributes": {
            "NORMAL": 1,
            "POSITION": 0
          },
          "indices": 2,
          "material": 0,
          "mode": 4
        }
      ]
    },
    {
      "primitives": [
        {
          "attributes": {
            "NORMAL": 4,
            "POSITION": 3
          },
          "indices": 5,
          "material": 1,
          "mode": 4
        }
      ]
    },
    {
      "primitives": [
        {
          "attributes": {
            "NORMAL": 7,
            "POSITION": 6
          },
          "indices": 8,
          "material": 2,
          "mode": 4
        }
      ]
    },
    {
      "primitives": [
        {
          "attributes": {
            "NORMAL": 10,
            "POSITION": 9
          },
          "indices": 11,
          "material": 3,
          "mode": 4
        }
      ]
    }
  ],
  "nodes": [
    {
      "children": [
        1
      ],
      "name": "RootNode (gltf orientation matrix)",
      "rotation": [
        -0.70710678118654746,
        -0,
        -0,
        0.70710678118654757
      ]
    },
    {
      "children": [
        2
      ],
      "matrix": [
        1,
        1.6081226229577292e-16,
        3.8285688045569402e-16,
        0,
        3.8285688045569402e-16,
        -2.2204460492503131e-16,
        -1,
        0,
        -1.6081226229577292e-16,
        1,
        -2.2204460492503131e-16,
        0,
        3.1086244689504383e-15,
        -4.732478141784668,
        -15.267523765563965,
        1
      ],
      "name": "RootNode (model correction matrix)"
    },
    {
      "children": [
        3,
        4,
        5,
        6
      ],
      "name": "tinker.obj.cleaner.materialmerger.gles"
    },
    {
      "mesh": 0,
      "name": ""
    },
    {
      "mesh": 1,
      "name": ""
    },
    {
      "mesh": 2,
      "name": ""
    },
    {
      "mesh": 3,
      "name": ""
    }
  ],
  "scene": 0,
  "scenes": [
    {
      "name": "OSG_Scene",
      "nodes": [
        0
      ]
    }
  ]
}

